<svg width="26" height="26" viewBox="0 0 26 26" fill="none" xmlns="http://www.w3.org/2000/svg">
<path fill-rule="evenodd" clip-rule="evenodd" d="M14.7786 25.9853C21.1168 25.1146 26 19.6565 26 13.0532C26 5.84413 20.1797 0 13 0C5.8203 0 0 5.84413 0 13.0532C0 19.6948 4.94005 25.1779 11.332 26V17.8277H8.45V14.347H11.332V11.7801C11.332 8.80128 13.0765 7.1792 15.6246 7.1792C16.8452 7.1792 17.8943 7.27397 18.2 7.31639V10.4295L16.4326 10.4303C15.047 10.4303 14.7786 11.1171 14.7786 12.1248V14.347H18.0836L17.6532 17.8277H14.7786V25.9853Z" fill="#272727"/>
</svg>
