<svg width="26" height="26" viewBox="0 0 26 26" fill="none" xmlns="http://www.w3.org/2000/svg">
<path fill-rule="evenodd" clip-rule="evenodd" d="M26 13C26 20.1797 20.1797 26 13 26C5.8203 26 0 20.1797 0 13C0 5.8203 5.8203 0 13 0C20.1797 0 26 5.8203 26 13ZM14.1647 9.2805L5.41039 12.8874C3.86993 13.4886 4.77166 14.0522 4.77166 14.0522C4.77166 14.0522 6.08669 14.503 7.21386 14.8412C8.34103 15.1793 8.94219 14.8036 8.94219 14.8036L14.2399 11.2343C16.1185 9.9568 15.6676 11.0088 15.2168 11.4597C14.2399 12.4366 12.6243 13.977 11.2717 15.2169C10.6705 15.7429 10.9711 16.1938 11.2341 16.4192C11.9987 17.0662 13.799 18.2425 14.6174 18.7773C14.8447 18.9258 14.9962 19.0248 15.0289 19.0493C15.2168 19.1996 16.2688 19.8759 16.9075 19.7256C17.5462 19.5753 17.6214 18.7111 17.6214 18.7111L18.5607 12.8123C18.6442 12.2593 18.7276 11.7178 18.8055 11.2129C19.0079 9.89979 19.1723 8.83384 19.1994 8.45391C19.3121 7.17645 17.9595 7.70246 17.9595 7.70246C17.9595 7.70246 15.0289 8.90478 14.1647 9.2805Z" fill="#272727"/>
</svg>
