<svg width="159" height="20" viewBox="0 0 159 20" fill="none" xmlns="http://www.w3.org/2000/svg">
<path d="M147.214 18.077C149.17 19.3303 151.067 19.9426 152.901 19.9426C154.123 19.9426 155.805 19.5456 156.876 18.6582C157.948 17.7709 158.314 16.7017 158.314 15.6924C158.314 15.0203 158.192 14.4702 157.917 14.011C157.398 13.1237 156.785 12.6955 155.96 12.2985C155.563 12.0832 154.798 11.8106 153.667 11.4422C152.535 11.0739 151.832 10.7702 151.588 10.5238C151.344 10.2798 151.22 10.0335 151.22 9.78953C151.22 9.08634 151.739 8.7491 152.81 8.7491C153.698 8.7491 154.889 9.23942 156.326 10.2177L157.886 7.64889C156.417 6.63956 154.43 5.93638 152.717 5.93638C151.83 5.93638 150.973 6.08945 150.21 6.42669C148.651 7.06769 147.764 8.26118 147.764 9.85171C147.764 11.105 148.436 11.9923 149.507 12.6333C149.845 12.8486 150.179 13.0304 150.548 13.1834C150.914 13.3365 151.619 13.5805 152.688 13.9488C153.729 14.3148 154.37 14.6209 154.645 14.896C154.889 15.171 155.013 15.4772 155.013 15.7522C155.013 16.6994 153.973 17.0677 152.782 17.0677C151.65 17.0677 150.275 16.5176 148.685 15.4461L147.216 18.077H147.214ZM69.8087 19.6054C73.8388 19.6054 76.1899 17.6202 76.1899 14.1713C76.1899 12.4611 75.0371 10.3325 73.1356 9.47381C73.8268 8.68453 74.6353 7.51256 74.6353 5.89811C74.6353 2.44678 71.7006 0.468787 69.5767 0.464004L59.4308 0.432911V19.6054H69.8111H69.8087ZM63.0017 11.6982H69.9019C71.459 11.6982 72.4061 12.5831 72.4061 13.956C72.4061 15.3002 71.4303 16.2449 69.8732 16.2449H62.973L63.0041 11.6958L63.0017 11.6982ZM62.9706 3.82205H68.3138C69.8708 3.82205 70.8467 4.76919 70.8467 6.11098C70.8467 7.48625 69.8995 8.3999 68.3425 8.3999H62.9993L62.9682 3.81966L62.9706 3.82205ZM15.6231 13.9799C14.4009 15.6015 12.4133 16.6396 10.3038 16.6396C9.23224 16.6396 8.19421 16.3334 7.1227 15.7522C5.01316 14.5898 3.72877 12.2363 3.72877 10.0024C3.72877 8.87108 4.03492 7.77087 4.64721 6.69935C5.22841 5.62784 6.05358 4.80268 7.12509 4.22148C8.1966 3.64028 9.23463 3.36522 10.3061 3.36522C12.4157 3.36522 14.3435 4.40564 15.5657 6.14686L18.5004 3.94403C16.4195 1.34418 13.4537 0 10.3061 0C7.52452 0 4.92466 1.07151 3.02798 2.906C1.13131 4.74049 0 7.27816 0 10C0 12.7218 1.13131 15.2595 3.02798 17.094C4.92466 18.9285 7.52212 20 10.3061 20C13.4561 20 16.4219 18.6534 18.5004 16.056L15.6254 13.9751L15.6231 13.9799ZM107.302 6.15164V19.6054H110.856L110.837 9.11983H115.028C116.154 9.11983 117.053 10.0789 117.053 11.1457L117.046 19.6054H120.6V10.4951C120.6 8.17986 118.701 6.15164 116.257 6.15164H107.3H107.302ZM92.0043 6.15164V19.6054H95.5585L95.5393 9.11983H99.7297C100.856 9.11983 101.756 10.0789 101.756 11.1457L101.748 19.6054H105.303V10.4951C105.303 8.17986 103.403 6.15164 100.959 6.15164H92.0019H92.0043ZM26.6109 10.3396C27.8331 10.3396 28.8424 9.3303 28.8424 8.10811C28.8424 6.88591 27.8331 5.87658 26.6109 5.87658C25.3887 5.87658 24.3793 6.88591 24.3793 8.10811C24.3793 9.3303 25.3887 10.3396 26.6109 10.3396ZM23.7072 19.6054V6.15164H20.1602V19.6054H23.7072ZM40.0144 15.5991C39.1581 16.4865 38.1177 16.9146 36.9266 16.9146C35.061 16.9146 33.3174 15.6302 32.8295 13.8866H43.5614L43.5924 12.8773C43.5924 10.9519 42.8582 8.87108 41.3298 7.55561C39.8015 6.24013 38.1201 5.87419 36.6204 5.87419C32.4611 5.87419 29.3136 8.99306 29.3136 12.8773C29.3136 16.7615 32.7697 19.8804 36.9266 19.8804C38.8543 19.8804 40.7486 19.2083 42.0952 18.077L40.0167 15.5991H40.0144ZM33.1332 11.0117C33.7742 9.69625 35.1208 8.83999 36.618 8.83999C38.1177 8.83999 39.371 9.75843 39.89 11.0117H33.1308H33.1332ZM45.1399 15.1088C45.1399 18.1368 47.2806 19.9091 50.3372 19.9091C51.6527 19.9091 52.7529 19.5719 53.6714 18.8998V19.603H56.9744V6.14925H47.0988V9.14614H53.6738V14.7118C53.6738 16.1492 52.1454 17.2495 50.7989 17.2495C49.2394 17.2495 48.3521 16.0273 48.3521 14.9868C48.3521 13.6714 49.4834 12.7242 50.7989 12.7242V10.0335C46.8237 10.0335 45.1423 12.8462 45.1423 15.1088H45.1399ZM77.9287 15.1088C77.9287 18.1368 80.0694 19.9091 83.126 19.9091C84.4415 19.9091 85.5417 19.5719 86.4602 18.8998V19.603H89.7632V6.14925H79.8852V9.14614H86.4602V14.7118C86.4602 16.1492 84.9318 17.2495 83.5853 17.2495C82.0258 17.2495 81.1385 16.0273 81.1385 14.9868C81.1385 13.6714 82.2698 12.7242 83.5853 12.7242V10.0335C79.6101 10.0335 77.9287 12.8462 77.9287 15.1088ZM132.782 15.5991C131.925 16.4865 130.885 16.9146 129.694 16.9146C127.828 16.9146 126.085 15.6302 125.597 13.8866H136.331L136.362 12.8773C136.362 10.9519 135.628 8.87108 134.1 7.55561C132.571 6.24013 130.89 5.87419 129.39 5.87419C125.231 5.87419 122.081 8.99306 122.081 12.8773C122.081 16.7615 125.537 19.8804 129.694 19.8804C131.622 19.8804 133.516 19.2083 134.862 18.077L132.784 15.5991H132.782ZM125.901 11.0117C126.542 9.69625 127.888 8.83999 129.385 8.83999C130.885 8.83999 132.138 9.75843 132.657 11.0117H125.901ZM144.685 10.3396C145.908 10.3396 146.917 9.3303 146.917 8.10811C146.917 6.88591 145.908 5.87658 144.685 5.87658C143.461 5.87658 142.454 6.88591 142.454 8.10811C142.454 9.3303 143.463 10.3396 144.685 10.3396ZM141.779 19.6054V6.15164H138.232V19.6054H141.779Z" fill="#272727"/>
</svg>
